<?xml version="1.0" encoding="utf-8"?>
<!-- Generator: Adobe Illustrator 17.1.0, SVG Export Plug-In . SVG Version: 6.00 Build 0)  -->
<!DOCTYPE svg PUBLIC "-//W3C//DTD SVG 1.1//EN" "http://www.w3.org/Graphics/SVG/1.1/DTD/svg11.dtd">
<svg version="1.1" id="Layer_1" xmlns="http://www.w3.org/2000/svg" xmlns:xlink="http://www.w3.org/1999/xlink" x="0px" y="0px"
	 viewBox="6.3 2.2 80.8 27.7" enable-background="new 6.3 2.2 80.8 27.7" xml:space="preserve">
<polygon fill="#FFFFFF" points="76.1,2.2 72.5,2.2 77.7,16 72.5,29.9 76.1,29.9 81.2,16 "/>
<path fill="#FFFFFF" d="M26.6,26.2c-0.3,0-0.4-0.1-0.6-0.2l-2.4-2.4c-0.2-0.2-0.2-0.4-0.2-0.6V9c0-0.2,0.1-0.4,0.2-0.6L26,6.1
	c0.2-0.2,0.3-0.3,0.6-0.3h0.7V2.2h-1.3c-0.8,0-1.5,0.3-2.1,0.9l-3.4,3.4c-0.6,0.6-0.9,1.3-0.9,2.1v15c0,0.8,0.3,1.5,0.9,2.1l3.4,3.4
	c0.6,0.6,1.3,0.9,2.1,0.9h1.3v-3.7L26.6,26.2L26.6,26.2z"/>
<path fill="#FFFFFF" d="M29.9,26.2c0.2,0,0.4-0.1,0.6-0.2l2.4-2.4c0.2-0.2,0.2-0.4,0.2-0.6V9c0-0.2-0.1-0.4-0.2-0.6l-2.4-2.4
	c-0.2-0.2-0.3-0.3-0.6-0.3h-0.7V2.2h1.3c0.8,0,1.5,0.3,2.1,0.9L36,6.5c0.6,0.6,0.9,1.3,0.9,2.1v15c0,0.8-0.3,1.5-0.9,2.1L32.6,29
	c-0.6,0.6-1.3,0.9-2.1,0.9h-1.3v-3.7L29.9,26.2L29.9,26.2z"/>
<path fill="#FFFFFF" d="M13.3,26.2c-0.2,0-0.4-0.1-0.6-0.2l-2.4-2.4c-0.2-0.2-0.3-0.4-0.3-0.6V9c0-0.2,0.1-0.4,0.3-0.6l2.4-2.4
	c0.2-0.2,0.3-0.3,0.6-0.3h1.6V2.2h-2.2c-0.8,0-1.5,0.3-2.1,0.9L7.2,6.5C6.6,7,6.3,7.7,6.3,8.5v15c0,0.8,0.3,1.5,0.9,2.1l3.4,3.4
	c0.6,0.6,1.3,0.9,2.1,0.9h2.2v-3.7L13.3,26.2L13.3,26.2z"/>
<polygon fill="#FFFFFF" points="83.8,2.2 82.2,6.2 85.6,6.2 87.1,2.2 "/>
<path fill="#FFFFFF" d="M43.8,29.9h-3.5l6.7-27.7h3.5L43.8,29.9z"/>
<rect x="51.9" y="26.6" fill="#FFFFFF" width="3.3" height="3.3"/>
<g>
	<path fill="#FFFFFF" d="M67.5,27.4V4.7c0-2.1-1.2-2.5-2-2.5h-7.1v3.2H64v21.2h-5.5v3.3h7C66.3,29.9,67.5,29.6,67.5,27.4z"/>
</g>
</svg>
